<svg width="127" height="83" viewBox="0 0 127 83" fill="none" xmlns="http://www.w3.org/2000/svg">
<circle cx="41.5" cy="41.5" r="41.5" fill="#1F242C"/>
<mask id="mask0_80_765" style="mask-type:alpha" maskUnits="userSpaceOnUse" x="0" y="0" width="127" height="83">
<path d="M83 41.5C83 57.9378 73.4432 72.1434 59.5827 78.8638C54.117 81.5139 47.9821 83 41.5 83C18.5802 83 0 64.4198 0 41.5C0 18.5802 18.5802 0 41.5 0C48.4132 0 54.9316 1.6904 60.6645 4.68041C73.938 11.6034 83 25.4934 83 41.5Z" fill="#1F242C"/>
<path d="M60.6645 4.68041C73.938 11.6034 83 25.4934 83 41.5C83 57.9378 73.4432 72.1434 59.5827 78.8638H126.844V4.68041H60.6645Z" fill="#1F242C"/>
</mask>
<g mask="url(#mask0_80_765)">
<path d="M9.50939 18.3517C9.50939 21.5821 9.48632 24.1202 9.44017 25.9662H12.9702L13.3162 23.578C14.4929 23.578 15.635 23.8664 16.7424 24.4433V31.2963L14.4583 31.4693C13.9046 30.6387 13.5816 29.9118 13.4893 29.2888H9.40557L9.33635 35.7957L12.7625 36.1764C12.7625 37.0763 12.4972 38.057 11.9665 39.1184H2.51863L2.20716 37.2148C3.70683 36.6379 4.67584 36.3033 5.11421 36.211C5.09114 34.8497 5.06806 32.9345 5.04499 30.4656C4.95271 24.9278 4.87195 20.7399 4.80274 17.9018L1.9303 17.0019L2.20716 14.8906H19.1996C19.2688 15.5136 19.3034 16.3097 19.3034 17.2788C19.3034 18.2248 19.1303 19.5285 18.7843 21.1898C18.2767 21.3514 17.5038 21.4321 16.4655 21.4321L15.7042 21.3975H15.5311L14.7352 18.3517H9.50939Z" fill="#FCFB00"/>
<path d="M31.4045 24.8586C31.3583 24.7432 31.1276 24.6856 30.7123 24.6856C30.297 24.6856 29.5818 24.9971 28.5666 25.6201C28.4743 30.1426 28.4167 33.5345 28.3936 35.7957L31.093 36.1418C31.093 37.134 30.8277 38.1262 30.297 39.1184H21.6797L21.3682 37.2148C22.7987 36.6841 23.8369 36.338 24.4829 36.1764L24.1022 24.9624C22.9025 24.8701 21.8989 24.6971 21.0913 24.4433L21.3336 21.9513C21.9565 21.6744 24.206 21.4898 28.0821 21.3975C28.2898 21.6052 28.3936 22.009 28.3936 22.6089C30.4239 21.6167 31.7044 21.1206 32.235 21.1206C32.7888 21.1206 33.4578 21.2591 34.2423 21.536C35.0498 21.7898 35.6612 22.0667 36.0765 22.3666V22.955C36.0765 24.8471 35.8458 26.6007 35.3843 28.2159C34.9921 28.3774 34.473 28.4582 33.827 28.4582C33.181 28.4582 32.5811 28.4236 32.0274 28.3543C31.9582 28.0544 31.7505 26.8891 31.4045 24.8586Z" fill="#FCFB00"/>
<path d="M45.9473 36.1418C46.7317 36.1418 48.3237 35.5996 50.7231 34.5151C51.2307 35.2535 51.6114 36.1072 51.8652 37.0763C50.5962 37.8608 49.3504 38.4723 48.1276 38.9107C46.9278 39.326 46.0742 39.5337 45.5666 39.5337C42.7749 39.5337 40.6523 38.7607 39.1988 37.2148C37.7683 35.6688 37.0531 33.4768 37.0531 30.6387C37.0531 27.7775 37.7683 25.4816 39.1988 23.7511C40.6292 21.9974 42.7518 21.1206 45.5666 21.1206C47.8045 21.1206 49.5119 21.8475 50.6885 23.3011C51.8652 24.7548 52.4535 26.6469 52.4535 28.9773C52.4535 29.4619 52.1767 30.0157 51.6229 30.6387L41.6559 30.4656C41.7021 32.3115 42.0481 33.719 42.6941 34.6882C43.3402 35.6573 44.4245 36.1418 45.9473 36.1418ZM45.2551 23.9933C44.3784 23.9933 43.5593 24.1664 42.798 24.5125C42.2673 25.6201 41.9328 26.6469 41.7943 27.5929C43.5939 27.5237 45.6358 27.4775 47.9199 27.4544C47.8045 25.147 46.9163 23.9933 45.2551 23.9933Z" fill="#FCFB00"/>
<path d="M63.6567 36.1418C64.4411 36.1418 66.0331 35.5996 68.4326 34.5151C68.9401 35.2535 69.3208 36.1072 69.5746 37.0763C68.3057 37.8608 67.0598 38.4723 65.837 38.9107C64.6372 39.326 63.7836 39.5337 63.276 39.5337C60.4843 39.5337 58.3617 38.7607 56.9082 37.2148C55.4777 35.6688 54.7625 33.4768 54.7625 30.6387C54.7625 27.7775 55.4777 25.4816 56.9082 23.7511C58.3386 21.9974 60.4612 21.1206 63.276 21.1206C65.514 21.1206 67.2213 21.8475 68.3979 23.3011C69.5746 24.7548 70.1629 26.6469 70.1629 28.9773C70.1629 29.4619 69.8861 30.0157 69.3324 30.6387L59.3653 30.4656C59.4115 32.3115 59.7576 33.719 60.4036 34.6882C61.0496 35.6573 62.1339 36.1418 63.6567 36.1418ZM62.9645 23.9933C62.0878 23.9933 61.2688 24.1664 60.5074 24.5125C59.9767 25.6201 59.6422 26.6469 59.5038 27.5929C61.3034 27.5237 63.3452 27.4775 65.6293 27.4544C65.514 25.147 64.6257 23.9933 62.9645 23.9933Z" fill="#FCFB00"/>
<path d="M11.9675 68.3854C8.82976 68.3854 6.32646 67.324 4.45764 65.2012C2.58883 63.0784 1.65442 59.9403 1.65442 55.787C1.65442 51.6336 2.46193 48.5186 4.07696 46.442C5.71506 44.3422 8.35678 43.2924 12.0021 43.2924C13.5479 43.2924 15.0245 43.5 16.4319 43.9154C17.8624 44.3307 18.8314 44.6883 19.339 44.9883C19.8465 45.2652 20.2503 45.519 20.5502 45.7497C20.5502 47.2265 20.3657 48.8647 19.9965 50.6645C19.3966 50.9414 18.7968 51.0798 18.1969 51.0798C17.6201 51.0798 17.1241 51.0568 16.7088 51.0106L15.982 47.4111C14.9669 47.1342 13.9748 46.9957 13.0057 46.9957C11.6445 46.9957 9.94874 47.2726 7.91842 47.8264C6.90326 49.8569 6.39568 52.3258 6.39568 55.2332C6.39568 61.6016 8.26449 64.7858 12.0021 64.7858C13.8709 64.7858 15.3591 64.4743 16.4665 63.8513C16.5127 62.6515 16.5588 60.8056 16.605 58.3136L13.6979 57.4137L13.9748 55.3024H22.3498C22.6267 55.81 22.8343 56.7215 22.9728 58.0367C22.1883 58.1982 21.3462 58.3136 20.4464 58.3828C20.5848 61.3593 20.6541 63.9206 20.6541 66.0664C19.985 66.5049 18.7737 67.0009 17.0202 67.5547C15.2668 68.1085 13.5825 68.3854 11.9675 68.3854Z" fill="#FCFB00"/>
<path d="M31.2189 68.3508C29.2578 68.3508 27.735 67.947 26.6507 67.1394C25.5894 66.3318 25.0587 64.9704 25.0587 63.0553C25.0587 61.2324 25.6932 59.7442 26.9621 58.5905C27.7004 57.9213 28.7271 57.529 30.0422 57.4137C31.3573 57.2983 33.1684 57.2406 35.4756 57.2406V56.6868C35.4756 55.2793 35.2449 54.2525 34.7835 53.6065C34.3451 52.9373 33.5607 52.6027 32.4301 52.6027C31.8534 52.6027 31.3342 52.7181 30.8728 52.9488L30.0422 55.96L27.4812 55.8908C26.9045 55.014 26.593 53.618 26.5468 51.7028C27.0083 51.4721 28.0926 51.126 29.8 50.6645C31.5073 50.18 32.6032 49.9377 33.0877 49.9377C35.5794 49.9377 37.3906 50.4568 38.5211 51.4952C39.6516 52.5104 40.2169 54.1372 40.2169 56.3753C40.2169 58.5905 40.1131 61.5209 39.9054 65.1666C41.2205 65.2819 42.2357 65.4781 42.9509 65.7549C42.974 66.0318 42.9855 66.3664 42.9855 66.7587L42.9509 67.5201C41.2897 68.0739 39.617 68.3508 37.9328 68.3508C37.4944 68.3508 37.1714 68.3392 36.9638 68.3162C36.6177 67.6239 36.41 66.7933 36.3408 65.8242H36.1678C35.7294 66.2395 34.9565 66.7702 33.8491 67.4163C32.7647 68.0393 31.888 68.3508 31.2189 68.3508ZM29.4885 63.2629C29.4885 64.0244 29.7192 64.5897 30.1806 64.9589C30.6652 65.305 31.2073 65.4781 31.8072 65.4781C32.4071 65.4781 33.1223 65.2127 33.9529 64.682C34.7835 64.1282 35.4526 63.6321 35.9601 63.1937L35.7871 60.0095C33.9644 60.1018 32.5917 60.2749 31.6688 60.5287C30.2153 60.8286 29.4885 61.7401 29.4885 63.2629Z" fill="#FCFB00"/>
<path d="M67.7322 57.9328C67.686 56.3177 67.4899 55.1986 67.1439 54.5756C66.8209 53.9526 66.0595 53.6411 64.8598 53.6411C63.6831 53.6411 62.5872 53.8949 61.572 54.4025C61.572 57.356 61.422 60.7594 61.1221 64.6128L63.8561 64.9243C63.8561 65.8703 63.5908 66.874 63.0601 67.9354H54.4428L54.1314 66.0318C55.3311 65.5934 56.3808 65.2473 57.2806 64.9935L57.0038 57.7944C56.9576 56.2946 56.7731 55.2332 56.4501 54.6102C56.1501 53.9641 55.5618 53.6411 54.6851 53.6411C54.2236 53.6411 53.5546 53.7218 52.6778 53.8833C51.8011 54.0449 51.132 54.2179 50.6706 54.4025C50.6706 54.4717 50.5668 57.8752 50.3591 64.6128L53.0585 64.9243C53.0585 65.9395 52.7932 66.9433 52.2625 67.9354H43.6452L43.3337 66.0318C44.695 65.5011 45.7332 65.155 46.4484 64.9935L45.9985 53.8141C45.0526 53.7218 44.1413 53.5488 43.2645 53.295L43.4376 50.803C43.8298 50.6876 44.6719 50.5491 45.9639 50.3876C47.256 50.2261 48.2365 50.1454 48.9056 50.1454C48.9979 50.2146 49.1709 50.4338 49.4247 50.803C49.6785 51.1491 49.8515 51.426 49.9438 51.6336C50.7283 51.2414 51.6742 50.8606 52.7817 50.4915C53.9122 50.1223 54.6043 49.9377 54.8581 49.9377C57.3037 49.9377 59.0918 50.5722 60.2223 51.8413C61.099 51.3798 62.1603 50.9529 63.4062 50.5607C64.6521 50.1453 65.425 49.9377 65.7249 49.9377C67.9168 49.9377 69.5549 50.4568 70.6392 51.4952C71.7236 52.5335 72.2658 54.2641 72.2658 56.6868C72.2658 58.0251 72.162 60.6671 71.9543 64.6128L74.6537 64.9243C74.6537 65.9395 74.3884 66.9433 73.8578 67.9354H65.275L64.9636 66.0318C66.0479 65.5934 67.04 65.2473 67.9398 64.9935C67.9168 64.4628 67.8937 63.7129 67.8706 62.7438C67.8245 61.1517 67.7783 59.548 67.7322 57.9328Z" fill="#FCFB00"/>
<path d="M84.6808 64.9589C85.4652 64.9589 87.0572 64.4166 89.4566 63.3322C89.9642 64.0705 90.3449 64.9243 90.5987 65.8934C89.3297 66.6779 88.0839 67.2894 86.8611 67.7278C85.6613 68.1431 84.8077 68.3508 84.3001 68.3508C81.5084 68.3508 79.3858 67.5778 77.9323 66.0318C76.5018 64.4859 75.7866 62.2938 75.7866 59.4557C75.7866 56.5945 76.5018 54.2987 77.9323 52.5681C79.3627 50.8145 81.4853 49.9377 84.3001 49.9377C86.5381 49.9377 88.2454 50.6645 89.422 52.1182C90.5987 53.5718 91.187 55.4639 91.187 57.7944C91.187 58.279 90.9102 58.8327 90.3564 59.4557L80.3894 59.2827C80.4356 61.1286 80.7816 62.5361 81.4276 63.5052C82.0737 64.4743 83.158 64.9589 84.6808 64.9589ZM83.9886 52.8104C83.1119 52.8104 82.2929 52.9835 81.5315 53.3296C81.0008 54.4371 80.6663 55.4639 80.5279 56.41C82.3275 56.3407 84.3693 56.2946 86.6534 56.2715C86.5381 53.9641 85.6498 52.8104 83.9886 52.8104Z" fill="#FCFB00"/>
</g>
<path fill-rule="evenodd" clip-rule="evenodd" d="M82.2071 16.8585C80.3318 17.1227 78.8463 17.8704 77.5839 19.1853C76.411 20.407 75.8665 21.576 75.4781 23.7057C74.7109 27.9125 74.1765 32.9611 74.1765 36.003C74.1765 36.8663 74.2016 37.1555 74.3107 37.5484C74.7864 39.2619 76.2898 40.775 78.1276 41.3896C79.2553 41.7668 80.0993 41.7147 81.1595 41.2024C82.2327 40.6838 83.0906 39.9393 85.0174 37.854C86.5454 36.2005 87.1842 35.611 87.7572 35.3258L88.1216 35.1445H91.169C94.1875 35.1445 94.2189 35.1459 94.4905 35.2908C95.0716 35.6011 95.8067 36.2793 97.2006 37.7909C97.9962 38.6538 98.9322 39.6115 99.2804 39.9191C100.44 40.943 101.397 41.4629 102.391 41.6074C104.202 41.871 106.678 40.3846 107.649 38.4511C107.74 38.2693 107.882 37.8973 107.964 37.6245C108.107 37.1469 108.111 37.0633 108.072 35.3759C107.993 31.95 107.565 27.9906 106.831 23.9018C106.497 22.0448 106.064 20.9552 105.204 19.8115C103.769 17.9027 101.602 16.8355 99.1518 16.8308C98.0413 16.8286 97.6566 16.9177 96.1375 17.5277C94.1908 18.3094 94.4028 18.2776 91.1358 18.2776C87.8745 18.2776 88.0675 18.3062 86.1829 17.5447C85.5902 17.3053 84.8896 17.0532 84.626 16.9844C84.0665 16.8384 82.8128 16.7732 82.2071 16.8585ZM84.2523 21.9725C84.4129 22.0571 84.6337 22.253 84.743 22.4078C84.941 22.6883 84.9418 22.6927 84.9748 23.8246L85.008 24.9599L86.101 24.993C87.3845 25.0318 87.5893 25.1013 87.9394 25.6168C88.1224 25.8863 88.1547 25.9926 88.1547 26.3264C88.1547 26.735 88.0492 27.0229 87.7992 27.2974C87.4974 27.6286 87.3308 27.6694 86.1342 27.7045L85.008 27.7375L84.9748 28.8618C84.9491 29.7374 84.9175 30.03 84.8321 30.1845C84.3996 30.967 83.3728 31.1146 82.7 30.4911C82.3357 30.1535 82.297 30.0073 82.2599 28.8287L82.2256 27.7375L81.1325 27.7045C79.9219 27.6678 79.7895 27.6298 79.4235 27.2136C78.979 26.7083 78.979 25.9892 79.4235 25.4838C79.7866 25.071 79.9221 25.0322 81.1325 24.9942L82.2256 24.9599L82.2615 23.8687C82.3002 22.692 82.3391 22.5445 82.7 22.2025C83.1253 21.7994 83.7487 21.7071 84.2523 21.9725ZM101.894 21.9538C102.308 22.1085 102.722 22.4786 102.941 22.8906C103.064 23.1212 103.092 23.2795 103.093 23.7365C103.093 24.2368 103.072 24.3376 102.897 24.653C102.42 25.5118 101.462 25.8687 100.506 25.5435C100.068 25.3946 99.5445 24.8721 99.3953 24.435C98.8504 22.8386 100.33 21.3696 101.894 21.9538ZM98.8022 27.231C99.4876 27.583 99.8447 28.1755 99.8447 28.961C99.8447 30.0219 99.1353 30.7887 98.0841 30.864C97.3054 30.9197 96.6519 30.5764 96.2571 29.9039C96.1137 29.6596 96.074 29.4956 96.0506 29.0507C96.0245 28.5549 96.0393 28.4639 96.1993 28.1376C96.4053 27.7172 96.8562 27.2932 97.2521 27.1475C97.6486 27.0015 98.4382 27.0441 98.8022 27.231Z" fill="#FCFB00"/>
</svg>
